HIERARCHY
ROOT Hips
{
	OFFSET 0.000000 0.000000 0.000000
	CHANNELS 6 Xposition Yposition Zposition Xrotation Yrotation Zrotation
	JOINT Chest
	{
		OFFSET 0.000000 0.009282 11.569106
		CHANNELS 3 Xrotation Yrotation Zrotation
		JOINT Chest2
		{
			OFFSET 0.000000 -0.016863 9.269641
			CHANNELS 3 Xrotation Yrotation Zrotation
			JOINT Chest3
			{
				OFFSET 0.000000 0.000000 8.374491
				CHANNELS 3 Xrotation Yrotation Zrotation
				JOINT Chest4
				{
					OFFSET 0.000000 0.000000 8.374493
					CHANNELS 3 Xrotation Yrotation Zrotation
					JOINT Neck
					{
						OFFSET 0.000000 -0.000001 12.152554
						CHANNELS 3 Xrotation Yrotation Zrotation
						JOINT Head
						{
							OFFSET 0.000000 -0.040100 7.802319
							CHANNELS 3 Xrotation Yrotation Zrotation
							End Site
							{
								OFFSET 0.000000 -0.020946 14.853096
							}
						}
					}
					JOINT RightCollar
					{
						OFFSET -2.894404 0.000000 6.791374
						CHANNELS 3 Xrotation Yrotation Zrotation
						JOINT RightShoulder
						{
							OFFSET -13.574684 0.000000 0.000000
							CHANNELS 3 Xrotation Yrotation Zrotation
							JOINT RightElbow
							{
								OFFSET -23.923903 0.000000 0.000000
								CHANNELS 3 Xrotation Yrotation Zrotation
								JOINT RightWrist
								{
									OFFSET -19.846718 -0.012765 0.000000
									CHANNELS 3 Xrotation Yrotation Zrotation
									End Site
									{
										OFFSET -14.973145 0.000000 0.000000
									}
								}
							}
						}
					}
					JOINT LeftCollar
					{
						OFFSET 2.894404 0.000000 6.791374
						CHANNELS 3 Xrotation Yrotation Zrotation
						JOINT LeftShoulder
						{
							OFFSET 13.574684 0.000000 0.000000
							CHANNELS 3 Xrotation Yrotation Zrotation
							JOINT LeftElbow
							{
								OFFSET 23.923903 0.000000 0.000000
								CHANNELS 3 Xrotation Yrotation Zrotation
								JOINT LeftWrist
								{
									OFFSET 19.846718 -0.012765 0.000000
									CHANNELS 3 Xrotation Yrotation Zrotation
									End Site
									{
										OFFSET 14.973145 0.000000 0.000000
									}
								}
							}
						}
					}
				}
			}
		}
	}
	JOINT RightHip
	{
		OFFSET -9.469263 -0.004642 0.045487
		CHANNELS 3 Xrotation Yrotation Zrotation
		JOINT RightKnee
		{
			OFFSET 0.000000 -0.002666 -40.478676
			CHANNELS 3 Xrotation Yrotation Zrotation
			JOINT RightAnkle
			{
				OFFSET 0.000000 -0.049110 -35.224068
				CHANNELS 3 Xrotation Yrotation Zrotation
				JOINT RightToe
				{
					OFFSET 0.000000 -12.539530 -6.151390
					CHANNELS 3 Xrotation Yrotation Zrotation
					End Site
					{
						OFFSET 0.000000 -5.044995 -1.291870
					}
				}
			}
		}
	}
	JOINT LeftHip
	{
		OFFSET 9.469263 -0.004642 0.045487
		CHANNELS 3 Xrotation Yrotation Zrotation
		JOINT LeftKnee
		{
			OFFSET 0.000000 -0.002666 -40.478676
			CHANNELS 3 Xrotation Yrotation Zrotation
			JOINT LeftAnkle
			{
				OFFSET 0.000000 -0.049110 -35.224068
				CHANNELS 3 Xrotation Yrotation Zrotation
				JOINT LeftToe
				{
					OFFSET 0.000000 -12.539530 -6.151390
					CHANNELS 3 Xrotation Yrotation Zrotation
					End Site
					{
						OFFSET 0.000000 -5.044995 -1.291870
					}
				}
			}
		}
	}
}
MOTION
Frames: 7
Frame Time: 0.016667
-9.819939 -7.262588 83.208008 1.776857 5.244613 -110.211174 2.741262 0.242240 0.559177 1.217500 0.107491 0.253895 1.217500 0.107491 0.253899 0.913170 0.080112 0.190638 17.272295 -0.277842 -1.633206 -4.098496 0.055348 -3.074139 -20.114429 -4.959409 -3.788709 -71.349611 -22.870854 -6.375346 -28.193387 -53.421300 44.922451 -48.379476 0.893643 4.793196 -11.986858 7.219469 -3.230626 -69.744721 20.707491 1.554482 -28.387096 46.688072 -49.346095 -61.631331 -16.329012 -19.801891 6.146874 0.574597 -3.151997 2.353912 -1.090033 -7.262357 -2.314147 0.166112 4.227796 0.006702 -0.011068 0.005548 6.935330 0.676905 -0.432809 1.299046 -1.155542 1.124195 -3.009972 1.172287 0.090327 0.016731 -0.002928 -0.005626 
-9.816563 -7.272572 83.209404 1.781148 5.271516 -110.197651 2.732253 0.225471 0.548408 1.213321 0.100288 0.249155 1.213321 0.100288 0.249153 0.910032 0.074722 0.187068 17.273620 -0.264452 -1.622954 -4.095911 0.076209 -3.050831 -20.071471 -4.947515 -3.804892 -71.469795 -22.751893 -6.526919 -29.161530 -53.184583 43.588358 -48.249317 -0.998514 3.387403 -11.966879 7.255408 -3.146073 -70.236515 20.813839 1.891520 -29.634224 46.842035 -47.760521 -61.806921 -12.812480 -18.072884 6.156976 0.582265 -3.151579 2.381419 -1.088283 -7.263057 -2.319566 0.167059 4.205704 0.006134 -0.014695 0.004646 6.947502 0.686949 -0.442743 1.315390 -1.158016 1.125156 -3.011297 1.175354 0.084840 0.014782 -0.007260 -0.004957 
-9.813387 -7.280728 83.210793 1.789466 5.296487 -110.182904 2.722823 0.210700 0.531612 1.208898 0.093539 0.241143 1.208899 0.093539 0.241142 0.906712 0.069678 0.181045 17.276547 -0.261004 -1.606235 -4.090681 0.076683 -3.019155 -20.072095 -4.980487 -3.779621 -71.406404 -22.584032 -6.543784 -30.559441 -52.994061 41.918981 -48.171883 -3.171549 1.720851 -11.894857 7.294000 -3.093102 -70.629470 20.921416 2.198922 -30.670766 46.854859 -46.555396 -61.887613 -10.191780 -16.806319 6.171221 0.591861 -3.148237 2.401672 -1.092050 -7.266199 -2.319304 0.168589 4.223919 0.003365 -0.018569 0.005579 6.963030 0.691901 -0.444390 1.325305 -1.161043 1.123196 -3.012046 1.181864 0.076768 0.015014 -0.012567 -0.005425 
-9.810342 -7.292418 83.211838 1.796175 5.321208 -110.173800 2.713581 0.209147 0.522109 1.205264 0.091273 0.236028 1.205264 0.091272 0.236026 0.903983 0.067989 0.177201 17.274421 -0.273414 -1.594706 -4.095069 0.050141 -3.002395 -20.050971 -4.970570 -3.836668 -71.321102 -22.533209 -6.584219 -31.971330 -52.720499 40.352532 -47.961701 -5.227723 -0.046379 -11.775726 7.395848 -3.260682 -71.044636 20.808552 2.452934 -31.353136 46.350982 -45.609435 -61.639568 -8.113962 -15.608594 6.183753 0.595950 -3.130142 2.422442 -1.094127 -7.280620 -2.311611 0.174070 4.203036 -0.007354 -0.020144 0.004150 6.974599 0.701439 -0.440357 1.336098 -1.160605 1.114215 -3.005426 1.183260 0.071880 0.010092 -0.017857 -0.004636 
-9.804288 -7.302095 83.212753 1.804077 5.346605 -110.171313 2.707030 0.203379 0.519251 1.202593 0.088998 0.234655 1.202594 0.088998 0.234654 0.901979 0.066287 0.176168 17.262815 -0.283276 -1.594331 -4.116842 0.032287 -3.005112 -19.940910 -4.864907 -4.009769 -71.433561 -22.668853 -6.727896 -32.939018 -52.189650 39.211436 -47.523295 -7.019129 -1.618659 -11.736138 7.505374 -3.420037 -71.434667 20.656333 2.654073 -32.162961 45.636612 -44.383860 -61.529800 -5.394754 -13.636402 6.191496 0.602895 -3.106157 2.446239 -1.098403 -7.299039 -2.310399 0.178695 4.166198 -0.008323 -0.021696 0.004822 6.987339 0.706818 -0.435930 1.349472 -1.160562 1.102285 -3.005620 1.187426 0.076901 0.009467 -0.020984 -0.004522 
-9.795871 -7.308217 83.213951 1.811062 5.371148 -110.175268 2.705505 0.186267 0.519367 1.201411 0.083261 0.235034 1.201411 0.083261 0.235039 0.901089 0.061984 0.176442 17.240724 -0.277241 -1.602913 -4.157592 0.046746 -3.018696 -19.828907 -4.812516 -4.076627 -71.591762 -22.649117 -6.796592 -33.835903 -51.480106 38.063883 -46.902048 -9.005946 -3.386544 -11.732924 7.517894 -3.372513 -71.723796 20.689051 2.808637 -33.540446 45.311393 -42.650099 -61.488751 -2.279819 -11.113989 6.194819 0.614518 -3.091256 2.472967 -1.101344 -7.293171 -2.317867 0.178855 4.179606 0.001128 -0.022550 0.006355 7.001006 0.707752 -0.437909 1.364478 -1.157984 1.094578 -3.015449 1.192547 0.091981 0.014857 -0.021639 -0.005425 
-9.787218 -7.315666 83.215591 1.814730 5.391873 -110.181552 2.707540 0.169792 0.524852 1.202298 0.076104 0.237347 1.202298 0.076104 0.237345 0.901753 0.056611 0.178153 17.209672 -0.269570 -1.612331 -4.214935 0.064675 -3.033239 -19.926577 -4.931970 -3.935572 -71.358955 -22.341998 -6.634207 -35.029916 -50.793279 36.698183 -46.234981 -11.165423 -5.308108 -11.747470 7.486678 -3.261218 -71.860229 20.725589 2.908405 -35.218573 45.138753 -40.707292 -61.170744 0.658715 -8.586746 6.195067 0.622054 -3.080309 2.496677 -1.102963 -7.289548 -2.315182 0.181182 4.179663 0.001194 -0.020728 0.006364 7.008466 0.715756 -0.451496 1.377162 -1.158464 1.102890 -3.014485 1.194357 0.102806 0.013619 -0.020644 -0.006355 
